<?xml version="1.0" encoding="UTF-8"?>
<svg xmlns="http://www.w3.org/2000/svg" xmlns:xlink="http://www.w3.org/1999/xlink" width="2588" height="3000" viewBox="0 0 2588 3000">
<path fill-rule="nonzero" fill="rgb(0%, 0%, 0%)" fill-opacity="1" d="M 1278.738281 2912.308594 C 1258.878906 2824.90625 1249.171875 2721.367188 1211.75 2197.648438 C 1180.898438 1765.851562 1137.898438 1579.050781 1026.429688 1392.589844 C 932.203125 1234.96875 773.40625 1082.351562 664.804688 1045.011719 L 619.804688 1029.539062 L 725.179688 968.320312 C 867.066406 885.871094 1014.539062 742.898438 1090.441406 614.191406 C 1182.429688 458.210938 1278.929688 199.730469 1307.980469 31.480469 C 1316.75 -19.230469 1317.691406 -17.519531 1347.308594 102.929688 C 1389.890625 276.089844 1445.121094 427.800781 1515.191406 564.121094 C 1592.351562 714.238281 1774.398438 902.789062 1910.320312 973.351562 C 1958.488281 998.359375 1997.949219 1022.480469 1998.011719 1026.941406 C 1998.058594 1031.410156 1982.039062 1038.328125 1962.390625 1042.328125 C 1904.269531 1054.160156 1810.179688 1124.570312 1711.941406 1229.769531 C 1515.070312 1440.578125 1440.519531 1692.898438 1394.269531 2304.964844 C 1382.929688 2455.011719 1362.160156 2666.308594 1348.109375 2774.511719 C 1334.070312 2882.710938 1322.570312 2977.710938 1322.570312 2985.621094 C 1322.570312 2993.527344 1317.191406 3000 1310.621094 3000 C 1304.050781 3000 1289.699219 2960.539062 1278.738281 2912.308594 Z M 1334.589844 649.03125 C 1327.300781 359.898438 1319.371094 121.378906 1316.96875 118.980469 C 1314.570312 116.589844 1308.171875 306.378906 1302.738281 540.738281 C 1292.320312 990.359375 1303.078125 1941.371094 1319.429688 2014.808594 C 1337.671875 2096.804688 1347.890625 1176.101562 1334.589844 649.03125 Z M 983.390625 2570.828125 C 897.738281 2527.011719 727.945312 2490.617188 461.203125 2458.898438 L 268.886719 2436.027344 L 184.730469 2277.390625 C 45.5 2014.933594 -13.050781 1794.320312 2.417969 1590.441406 C 11.753906 1467.390625 62.035156 1252.058594 109.671875 1131.148438 C 142.875 1046.859375 257.691406 839.519531 266.359375 848.191406 C 268.757812 850.578125 264.886719 892.878906 257.761719 942.179688 C 241.417969 1055.261719 241.042969 1291.609375 257.03125 1402.101562 C 297.171875 1679.480469 434.347656 1907.210938 649.144531 2053.074219 C 738.734375 2113.914062 917.6875 2200.265625 982.425781 2213.894531 C 1006.128906 2218.886719 1027.839844 2229.726562 1030.660156 2237.984375 C 1033.480469 2246.242188 1041.910156 2320.226562 1049.390625 2402.398438 C 1056.859375 2484.570312 1066.53125 2564.953125 1070.871094 2581.03125 C 1080.761719 2617.660156 1073.210938 2616.78125 983.386719 2570.828125 Z M 1547.339844 2579.804688 C 1551.03125 2570.203125 1557.808594 2501.511719 1562.410156 2427.160156 C 1574.71875 2228.492188 1565.660156 2244.152344 1700.710938 2188.171875 C 1826.679688 2135.957031 1965.128906 2049.914062 2065.910156 1961.199219 C 2193.308594 1849.070312 2292.96875 1655.601562 2336.269531 1436.410156 C 2354.511719 1344.101562 2359.410156 1050.449219 2344.648438 934.621094 L 2333.929688 850.421875 L 2359.179688 882.660156 C 2397.179688 931.171875 2478.660156 1098.539062 2512.140625 1196.859375 C 2565.96875 1354.929688 2588.160156 1489.75 2587.589844 1655.398438 C 2586.789062 1887.390625 2540.351562 2050.085938 2404.121094 2298.070312 L 2329.398438 2434.082031 L 2113.898438 2462.722656 C 1873.980469 2494.609375 1711.328125 2529.828125 1617.050781 2570.3125 C 1543.019531 2602.097656 1538.558594 2602.703125 1547.339844 2579.804688 Z M 885.796875 2131.402344 C 625.804688 2023.125 490.449219 1906.441406 387.554688 1701.878906 C 339.785156 1606.910156 288.570312 1418.691406 277.238281 1296.46875 L 269.566406 1213.691406 L 300.433594 1278.648438 C 363.265625 1410.859375 538.898438 1581 692.492188 1658.460938 C 742.722656 1683.78125 890.847656 1732.078125 960.09375 1745.699219 C 992.945312 1752.160156 994.078125 1755.738281 1002.328125 1879.25 C 1007 1949.050781 1014.578125 2045.625 1019.171875 2093.855469 C 1023.859375 2143.070312 1022.429688 2181.371094 1015.910156 2181.148438 C 1009.519531 2180.949219 950.964844 2158.542969 885.800781 2131.402344 Z M 1587.828125 2147.144531 C 1592.351562 2135.367188 1599.761719 2044.210938 1604.289062 1944.570312 C 1609.429688 1831.710938 1617.871094 1761.871094 1626.691406 1759.308594 C 1772.21875 1717.101562 1880.789062 1673.800781 1963.011719 1625.179688 C 2075.960938 1558.378906 2214.359375 1426.03125 2279.808594 1322.21875 L 2322.898438 1253.871094 L 2322.898438 1319.390625 C 2322.898438 1497.269531 2216.691406 1739.398438 2071.71875 1892.03125 C 1962.050781 2007.496094 1883.289062 2060.378906 1730.191406 2121.351562 C 1596.921875 2174.421875 1575.898438 2178.230469 1587.828125 2147.144531 Z M 1587.828125 2147.144531 "/>
</svg>
